<?xml version="1.0" encoding="UTF-8"?>
<svg xmlns="http://www.w3.org/2000/svg" xmlns:xlink="http://www.w3.org/1999/xlink" width="40px" height="40px" viewBox="0 0 40 40" version="1.1">
<g id="surface1">
<path style=" stroke:none;fill-rule:nonzero;fill:rgb(25.882354%,52.156866%,95.686275%);fill-opacity:1;" d="M 37.203125 20.398438 C 37.203125 19.242188 37.101562 18.140625 36.921875 17.070312 L 20.375 17.070312 L 20.375 23.679688 L 29.851562 23.679688 C 29.429688 25.851562 28.179688 27.679688 26.335938 28.921875 L 26.335938 33.3125 L 31.992188 33.3125 C 35.296875 30.25 37.203125 25.742188 37.203125 20.398438 Z M 37.203125 20.398438 "/>
<path style=" stroke:none;fill-rule:nonzero;fill:rgb(20.392157%,65.882355%,32.549021%);fill-opacity:1;" d="M 20.375 37.578125 C 25.125 37.578125 29.09375 36 31.992188 33.3125 L 26.335938 28.921875 C 24.757812 29.976562 22.75 30.625 20.375 30.625 C 15.789062 30.625 11.90625 27.53125 10.515625 23.359375 L 4.6875 23.359375 L 4.6875 27.882812 C 7.570312 33.625 13.5 37.578125 20.375 37.578125 Z M 20.375 37.578125 "/>
<path style=" stroke:none;fill-rule:nonzero;fill:rgb(98.431373%,73.725492%,1.960784%);fill-opacity:1;" d="M 10.515625 23.351562 C 10.148438 22.296875 9.960938 21.171875 9.960938 20 C 9.960938 18.828125 10.164062 17.703125 10.515625 16.648438 L 10.515625 12.125 L 4.6875 12.125 C 3.484375 14.492188 2.796875 17.15625 2.796875 20 C 2.796875 22.84375 3.484375 25.507812 4.6875 27.882812 C 4.6875 27.882812 10.515625 23.351562 10.515625 23.351562 Z M 10.515625 23.351562 "/>
<path style=" stroke:none;fill-rule:nonzero;fill:rgb(91.764706%,26.274511%,20.784314%);fill-opacity:1;" d="M 20.375 9.382812 C 22.96875 9.382812 25.28125 10.273438 27.109375 12.023438 L 32.117188 7.015625 C 29.085938 4.164062 25.117188 2.421875 20.375 2.421875 C 13.5 2.421875 7.570312 6.375 4.6875 12.117188 L 10.515625 16.640625 C 11.90625 12.46875 15.789062 9.382812 20.375 9.382812 Z M 20.375 9.382812 "/>
</g>
</svg>
