<?xml version="1.0" encoding="UTF-8"?>
<svg xmlns="http://www.w3.org/2000/svg" xmlns:xlink="http://www.w3.org/1999/xlink" width="40px" height="40px" viewBox="0 0 40 40" version="1.1">
<g id="surface1">
<path style=" stroke:none;fill-rule:nonzero;fill:rgb(23.529412%,11.372549%,11.764706%);fill-opacity:1;" d="M 19.960938 3.75 C 23.386719 3.75 26.554688 4.417969 29.464844 5.75 C 32.378906 7.082031 34.675781 8.894531 36.367188 11.191406 C 38.058594 13.480469 38.90625 15.984375 38.90625 18.691406 C 38.90625 21.398438 38.058594 23.902344 36.367188 26.203125 C 34.675781 28.503906 32.378906 30.320312 29.476562 31.652344 C 26.574219 32.988281 23.398438 33.652344 19.960938 33.652344 C 18.875 33.652344 17.753906 33.578125 16.601562 33.421875 C 11.582031 36.90625 8.910156 38.671875 8.585938 38.710938 C 8.429688 38.769531 8.28125 38.761719 8.140625 38.691406 C 8.085938 38.648438 8.042969 38.589844 8.015625 38.519531 C 7.984375 38.453125 7.972656 38.386719 7.972656 38.332031 L 7.972656 38.246094 C 8.054688 37.695312 8.699219 35.402344 9.894531 31.367188 C 7.175781 30.015625 5.015625 28.21875 3.414062 25.984375 C 1.816406 23.746094 1.015625 21.316406 1.015625 18.691406 C 1.015625 15.984375 1.859375 13.480469 3.550781 11.191406 C 5.242188 8.894531 7.546875 7.082031 10.457031 5.75 C 13.367188 4.417969 16.535156 3.75 19.960938 3.75 Z M 19.960938 3.75 "/>
</g>
</svg>
